<svg width="18" height="14" viewBox="0 0 18 14" fill="none" xmlns="http://www.w3.org/2000/svg">
<path fill-rule="evenodd" clip-rule="evenodd" d="M14.8091 7.39501C16.5141 5.97801 17.6991 3.95301 17.9921 1.62401C18.0611 1.07701 17.6731 0.57701 17.1241 0.50801C16.5841 0.43401 16.0761 0.82701 16.0081 1.37501C15.5691 4.86701 12.5561 7.50001 9.00007 7.50001C5.44407 7.50001 2.43107 4.86701 1.99207 1.37501C1.92407 0.82701 1.41407 0.43801 0.875068 0.50801C0.327068 0.57701 -0.0609317 1.07701 0.00806826 1.62401C0.301068 3.95301 1.48607 5.97801 3.19107 7.39501L0.879068 9.70701C0.490068 10.096 0.490068 10.732 0.879068 11.121C1.26707 11.51 1.90407 11.51 2.29307 11.121L4.89607 8.51801C5.85007 9.00001 6.89707 9.31801 8.00007 9.43901V13C8.00007 13.55 8.45007 14 9.00007 14C9.55007 14 10.0001 13.55 10.0001 13V9.43901C11.1021 9.31801 12.1501 9.00001 13.1031 8.51801L15.7071 11.121C16.0961 11.51 16.7321 11.51 17.1211 11.121C17.5101 10.732 17.5101 10.096 17.1211 9.70701L14.8091 7.39501Z" fill="#0700FF"/>
</svg>
