<svg width="20" height="14" viewBox="0 0 20 14" fill="none" xmlns="http://www.w3.org/2000/svg">
<path fill-rule="evenodd" clip-rule="evenodd" d="M9.99999 8.49999C9.17299 8.49999 8.49999 7.82699 8.49999 6.99999C8.49999 6.17299 9.17299 5.49999 9.99999 5.49999C10.827 5.49999 11.5 6.17299 11.5 6.99999C11.5 7.82699 10.827 8.49999 9.99999 8.49999ZM9.99999 3.49999C8.06999 3.49999 6.49999 5.06999 6.49999 6.99999C6.49999 8.92999 8.06999 10.5 9.99999 10.5C11.93 10.5 13.5 8.92999 13.5 6.99999C13.5 5.06999 11.93 3.49999 9.99999 3.49999ZM10.2197 11.9976C5.91369 12.0976 3.10469 8.41459 2.17269 6.99559C3.19869 5.39059 5.78269 2.10459 9.78069 2.00259C14.0697 1.89359 16.8947 5.58559 17.8267 7.00459C16.8017 8.60959 14.2167 11.8956 10.2197 11.9976ZM19.8677 6.50259C19.2297 5.39059 15.7057 -0.18341 9.72969 0.00359006C4.20169 0.14359 0.986689 5.01359 0.132689 6.50259C-0.044311 6.81059 -0.044311 7.18959 0.132689 7.49759C0.761689 8.59459 4.16169 13.9996 10.0247 13.9996C10.1067 13.9996 10.1887 13.9986 10.2707 13.9966C15.7977 13.8556 19.0137 8.98659 19.8677 7.49759C20.0437 7.18959 20.0437 6.81059 19.8677 6.50259Z" fill="#0700FF"/>
</svg>
